<svg width="167" height="63" viewBox="0 0 167 63" fill="none" xmlns="http://www.w3.org/2000/svg">
<ellipse cx="27.9549" cy="38.3985" rx="23.9549" ry="24.3985" fill="#5ADD40"/>
<path d="M65.0327 50.3963C63.098 50.3963 61.4318 49.983 60.0341 49.1562C58.6449 48.321 57.571 47.1491 56.8125 45.6406C56.0625 44.1236 55.6875 42.3466 55.6875 40.3097C55.6875 38.2983 56.0625 36.5256 56.8125 34.9915C57.571 33.4574 58.6278 32.2599 59.983 31.3991C61.3466 30.5384 62.9403 30.108 64.7642 30.108C65.8722 30.108 66.946 30.2912 67.9858 30.6577C69.0256 31.0241 69.9588 31.5994 70.7855 32.3835C71.6122 33.1676 72.2642 34.1861 72.7415 35.4389C73.2188 36.6832 73.4574 38.196 73.4574 39.9773V41.3324H57.848V38.4688H69.7116C69.7116 37.4631 69.5071 36.5724 69.098 35.7969C68.6889 35.0128 68.1136 34.3949 67.3722 33.9432C66.6392 33.4915 65.7784 33.2656 64.7898 33.2656C63.7159 33.2656 62.7784 33.5298 61.9773 34.0582C61.1847 34.5781 60.571 35.2599 60.1364 36.1037C59.7102 36.9389 59.4972 37.8466 59.4972 38.8267V41.0639C59.4972 42.3764 59.7273 43.4929 60.1875 44.4134C60.6562 45.3338 61.3082 46.0369 62.1435 46.5227C62.9787 47 63.9545 47.2386 65.071 47.2386C65.7955 47.2386 66.456 47.1364 67.0526 46.9318C67.6491 46.7187 68.1648 46.4034 68.5994 45.9858C69.0341 45.5682 69.3665 45.0526 69.5966 44.4389L73.2145 45.0909C72.9247 46.1562 72.4048 47.0895 71.6548 47.8906C70.9134 48.6832 69.9801 49.3011 68.8551 49.7443C67.7386 50.179 66.4645 50.3963 65.0327 50.3963ZM85.0494 50.3835C83.4641 50.3835 82.0494 49.9787 80.805 49.169C79.5692 48.3509 78.5977 47.1875 77.8903 45.679C77.1914 44.1619 76.842 42.3423 76.842 40.2202C76.842 38.098 77.1957 36.2827 77.9031 34.7741C78.619 33.2656 79.5991 32.1108 80.8434 31.3097C82.0877 30.5085 83.4982 30.108 85.0749 30.108C86.2937 30.108 87.2738 30.3125 88.0153 30.7216C88.7653 31.1222 89.3448 31.5909 89.7539 32.1278C90.1715 32.6648 90.4954 33.1378 90.7255 33.5469H90.9556V23.8182H94.7781V50H91.0451V46.9446H90.7255C90.4954 47.3622 90.163 47.8395 89.7283 48.3764C89.3022 48.9134 88.7141 49.3821 87.9641 49.7827C87.2141 50.1832 86.2425 50.3835 85.0494 50.3835ZM85.8931 47.1236C86.9925 47.1236 87.9215 46.8338 88.68 46.2543C89.4471 45.6662 90.0266 44.8523 90.4187 43.8125C90.8192 42.7727 91.0195 41.5625 91.0195 40.1818C91.0195 38.8182 90.8235 37.625 90.4315 36.6023C90.0394 35.5795 89.4641 34.7827 88.7056 34.2116C87.9471 33.6406 87.0096 33.3551 85.8931 33.3551C84.7425 33.3551 83.7837 33.6534 83.0167 34.25C82.2496 34.8466 81.6701 35.6605 81.2781 36.6918C80.8945 37.723 80.7028 38.8864 80.7028 40.1818C80.7028 41.4943 80.8988 42.6747 81.2908 43.723C81.6829 44.7713 82.2624 45.6023 83.0295 46.2159C83.805 46.821 84.7596 47.1236 85.8931 47.1236ZM112.673 41.8565V30.3636H116.508V50H112.749V46.5994H112.545C112.093 47.6477 111.369 48.5213 110.371 49.2202C109.383 49.9105 108.151 50.2557 106.677 50.2557C105.415 50.2557 104.299 49.9787 103.327 49.4247C102.364 48.8622 101.606 48.0312 101.052 46.9318C100.506 45.8324 100.234 44.473 100.234 42.8537V30.3636H104.056V42.3935C104.056 43.7315 104.427 44.7969 105.168 45.5895C105.91 46.3821 106.873 46.7784 108.058 46.7784C108.773 46.7784 109.485 46.5994 110.192 46.2415C110.908 45.8835 111.501 45.3423 111.969 44.6179C112.447 43.8935 112.681 42.973 112.673 41.8565ZM136.358 35.1577L132.894 35.7713C132.749 35.3281 132.519 34.9062 132.203 34.5057C131.897 34.1051 131.479 33.777 130.951 33.5213C130.422 33.2656 129.762 33.1378 128.969 33.1378C127.887 33.1378 126.983 33.3807 126.259 33.8665C125.534 34.3437 125.172 34.9616 125.172 35.7202C125.172 36.3764 125.415 36.9048 125.901 37.3054C126.387 37.706 127.171 38.0341 128.253 38.2898L131.373 39.0057C133.179 39.4233 134.526 40.0668 135.412 40.9361C136.299 41.8054 136.742 42.9347 136.742 44.3239C136.742 45.5 136.401 46.5483 135.719 47.4688C135.046 48.3807 134.104 49.0966 132.894 49.6165C131.692 50.1364 130.299 50.3963 128.713 50.3963C126.515 50.3963 124.721 49.9276 123.331 48.9901C121.942 48.044 121.09 46.7017 120.775 44.9631L124.469 44.4006C124.699 45.3636 125.172 46.0923 125.888 46.5866C126.604 47.0724 127.537 47.3153 128.688 47.3153C129.941 47.3153 130.942 47.0554 131.692 46.5355C132.442 46.0071 132.817 45.3636 132.817 44.6051C132.817 43.9915 132.587 43.4759 132.127 43.0582C131.675 42.6406 130.98 42.3253 130.043 42.1122L126.719 41.3835C124.887 40.9659 123.532 40.3011 122.654 39.3892C121.784 38.4773 121.35 37.3224 121.35 35.9247C121.35 34.7656 121.674 33.7514 122.321 32.8821C122.969 32.0128 123.864 31.3352 125.006 30.8494C126.148 30.3551 127.456 30.108 128.931 30.108C131.053 30.108 132.723 30.5682 133.942 31.4886C135.161 32.4006 135.966 33.6236 136.358 35.1577ZM146.659 50.4347C145.415 50.4347 144.29 50.2045 143.284 49.7443C142.278 49.2756 141.482 48.598 140.893 47.7116C140.314 46.8253 140.024 45.7386 140.024 44.4517C140.024 43.3437 140.237 42.4318 140.663 41.7159C141.089 41 141.665 40.4332 142.389 40.0156C143.114 39.598 143.923 39.2827 144.818 39.0696C145.713 38.8565 146.625 38.6946 147.554 38.5838C148.73 38.4474 149.685 38.3366 150.418 38.2514C151.151 38.1577 151.683 38.0085 152.016 37.804C152.348 37.5994 152.514 37.267 152.514 36.8068V36.7173C152.514 35.6009 152.199 34.7358 151.568 34.1222C150.946 33.5085 150.017 33.2017 148.781 33.2017C147.494 33.2017 146.48 33.4872 145.739 34.0582C145.006 34.6207 144.499 35.2472 144.217 35.9375L140.625 35.1193C141.051 33.9261 141.673 32.9631 142.491 32.2301C143.318 31.4886 144.268 30.9517 145.342 30.6193C146.416 30.2784 147.545 30.108 148.73 30.108C149.514 30.108 150.345 30.2017 151.223 30.3892C152.109 30.5682 152.936 30.9006 153.703 31.3864C154.479 31.8722 155.114 32.5668 155.608 33.4702C156.102 34.3651 156.349 35.5284 156.349 36.9602V50H152.616V47.3153H152.463C152.216 47.8097 151.845 48.2955 151.351 48.7727C150.857 49.25 150.222 49.6463 149.446 49.9616C148.67 50.277 147.741 50.4347 146.659 50.4347ZM147.49 47.3665C148.547 47.3665 149.45 47.1577 150.2 46.7401C150.959 46.3224 151.534 45.777 151.926 45.1037C152.327 44.4219 152.527 43.6932 152.527 42.9176V40.3864C152.391 40.5227 152.126 40.6506 151.734 40.7699C151.351 40.8807 150.912 40.9787 150.418 41.0639C149.923 41.1406 149.442 41.2131 148.973 41.2812C148.504 41.3409 148.112 41.392 147.797 41.4347C147.055 41.5284 146.378 41.6861 145.764 41.9077C145.159 42.1293 144.673 42.4489 144.307 42.8665C143.949 43.2756 143.77 43.821 143.77 44.5028C143.77 45.4489 144.119 46.1648 144.818 46.6506C145.517 47.1278 146.408 47.3665 147.49 47.3665Z" fill="white"/>
<path d="M35.5312 49.8438C35.5312 48.0312 35.7656 46.2031 36.2344 44.3594C36.7344 42.4844 37.3438 40.6406 38.0625 38.8281C38.8125 37.0156 39.6094 35.2656 40.4531 33.5781C41.2969 31.8594 42.0938 30.25 42.8438 28.75V28.1406C42.5 28.5156 41.9531 29.1094 41.2031 29.9219C40.4844 30.7031 39.6562 31.5938 38.7188 32.5938C37.8125 33.5938 36.8438 34.6562 35.8125 35.7812C34.8125 36.875 33.8438 37.9219 32.9062 38.9219C32 39.9219 31.1875 40.8281 30.4688 41.6406C29.75 42.4219 29.2188 43 28.875 43.375C28.5312 43.75 28.2031 44.3125 27.8906 45.0625C27.5781 45.7812 27.2344 46.5156 26.8594 47.2656C26.4844 48.0156 26.0625 48.6719 25.5938 49.2344C25.1562 49.7969 24.6562 50.0781 24.0938 50.0781C23.625 50.0781 23.25 50.0312 22.9688 49.9375C22.7188 49.8438 22.5312 49.7031 22.4062 49.5156C22.2812 49.2969 22.2031 49.0312 22.1719 48.7188C22.1406 48.4062 22.125 48.0312 22.125 47.5938C22.125 45.2812 22.4531 43.0469 23.1094 40.8906C23.7969 38.7031 24.5156 36.4844 25.2656 34.2344V33.625C25.2031 33.6875 25.0938 33.7969 24.9375 33.9531C24.7812 34.0781 24.6875 34.1719 24.6562 34.2344C23.9062 35.3594 23.1406 36.5781 22.3594 37.8906C21.5781 39.1719 20.7656 40.4531 19.9219 41.7344C19.0781 42.9844 18.1719 44.1875 17.2031 45.3438C16.2344 46.5 15.1875 47.5312 14.0625 48.4375C12.9375 49.3125 11.7031 50.0156 10.3594 50.5469C9.04688 51.0781 7.59375 51.3438 6 51.3438C5.65625 51.3438 5.1875 51.3281 4.59375 51.2969C4.03125 51.2656 3.46875 51.1719 2.90625 51.0156C2.375 50.8594 1.90625 50.6094 1.5 50.2656C1.125 49.9219 0.9375 49.4375 0.9375 48.8125C0.9375 48.5625 1.07812 48.25 1.35938 47.875C1.67188 47.4688 1.9375 47.1875 2.15625 47.0312C2.59375 47.75 2.95312 48.2344 3.23438 48.4844C3.54688 48.7031 3.98438 48.8125 4.54688 48.8125C5.48438 48.8125 6.46875 48.6719 7.5 48.3906C8.5625 48.0781 9.57812 47.6719 10.5469 47.1719C11.5469 46.6719 12.4844 46.0938 13.3594 45.4375C14.2344 44.7812 14.9688 44.0938 15.5625 43.375C16.0312 42.75 16.5938 41.9531 17.25 40.9844C17.9375 39.9844 18.6562 38.9062 19.4062 37.75C20.1875 36.5625 20.9844 35.3594 21.7969 34.1406C22.6094 32.9219 23.3906 31.7656 24.1406 30.6719C24.9219 29.5469 25.6406 28.5469 26.2969 27.6719C26.9531 26.7969 27.5156 26.1406 27.9844 25.7031C28.4219 25.7031 28.75 25.7812 28.9688 25.9375C29.1875 26.0625 29.3438 26.25 29.4375 26.5C29.5312 26.75 29.5781 27.0469 29.5781 27.3906C29.5781 27.7344 29.5781 28.0938 29.5781 28.4688C29.5781 29.7812 29.375 31.0625 28.9688 32.3125C28.5938 33.5625 28.1719 34.7812 27.7031 35.9688C27.2344 37.125 26.7969 38.2656 26.3906 39.3906C26.0156 40.5156 25.8281 41.625 25.8281 42.7188C25.8281 42.7812 25.8281 42.8906 25.8281 43.0469C25.8594 43.2031 25.875 43.3125 25.875 43.375C28.8125 40.125 31.3438 37.3125 33.4688 34.9375C35.5938 32.5625 37.3906 30.5469 38.8594 28.8906C40.3594 27.2031 41.5781 25.8438 42.5156 24.8125C43.4531 23.75 44.2031 22.9375 44.7656 22.375C45.3281 21.7812 45.75 21.375 46.0312 21.1562C46.3438 20.9375 46.5938 20.8281 46.7812 20.8281C47.0938 20.8281 47.3281 20.9219 47.4844 21.1094C47.6406 21.2969 47.7344 21.5156 47.7656 21.7656C47.8281 22.0156 47.8438 22.2812 47.8125 22.5625C47.8125 22.8438 47.8125 23.0781 47.8125 23.2656C47.8125 24.5781 47.5625 25.9219 47.0625 27.2969C46.5938 28.6406 45.9844 30.0312 45.2344 31.4688C44.5156 32.875 43.7188 34.3125 42.8438 35.7812C42 37.2188 41.2031 38.7031 40.4531 40.2344C39.7344 41.7656 39.125 43.3281 38.625 44.9219C38.1562 46.4844 37.9219 48.0938 37.9219 49.75C37.9219 50.5938 37.9375 51.2188 37.9688 51.625C38 52 38.0938 52.3125 38.25 52.5625C38.4062 52.8438 38.6562 53.125 39 53.4062C39.3438 53.7188 39.8281 54.2031 40.4531 54.8594C39.7344 55.2656 39.0312 55.4219 38.3438 55.3281C37.6875 55.2656 37.1094 55 36.6094 54.5312C36.1406 54.0625 35.7969 53.4219 35.5781 52.6094C35.3594 51.7969 35.3438 50.875 35.5312 49.8438Z" fill="#FFFAFA"/>
</svg>
