<svg width="52" height="63" viewBox="0 0 52 63" fill="none" xmlns="http://www.w3.org/2000/svg">
<ellipse cx="27.9549" cy="38.3985" rx="23.9549" ry="24.3985" fill="#5ADD40"/>
<path d="M35.5312 49.8438C35.5312 48.0312 35.7656 46.2031 36.2344 44.3594C36.7344 42.4844 37.3438 40.6406 38.0625 38.8281C38.8125 37.0156 39.6094 35.2656 40.4531 33.5781C41.2969 31.8594 42.0938 30.25 42.8438 28.75V28.1406C42.5 28.5156 41.9531 29.1094 41.2031 29.9219C40.4844 30.7031 39.6562 31.5938 38.7188 32.5938C37.8125 33.5938 36.8438 34.6562 35.8125 35.7812C34.8125 36.875 33.8438 37.9219 32.9062 38.9219C32 39.9219 31.1875 40.8281 30.4688 41.6406C29.75 42.4219 29.2188 43 28.875 43.375C28.5312 43.75 28.2031 44.3125 27.8906 45.0625C27.5781 45.7812 27.2344 46.5156 26.8594 47.2656C26.4844 48.0156 26.0625 48.6719 25.5938 49.2344C25.1562 49.7969 24.6562 50.0781 24.0938 50.0781C23.625 50.0781 23.25 50.0312 22.9688 49.9375C22.7188 49.8438 22.5312 49.7031 22.4062 49.5156C22.2812 49.2969 22.2031 49.0312 22.1719 48.7188C22.1406 48.4062 22.125 48.0312 22.125 47.5938C22.125 45.2812 22.4531 43.0469 23.1094 40.8906C23.7969 38.7031 24.5156 36.4844 25.2656 34.2344V33.625C25.2031 33.6875 25.0938 33.7969 24.9375 33.9531C24.7812 34.0781 24.6875 34.1719 24.6562 34.2344C23.9062 35.3594 23.1406 36.5781 22.3594 37.8906C21.5781 39.1719 20.7656 40.4531 19.9219 41.7344C19.0781 42.9844 18.1719 44.1875 17.2031 45.3438C16.2344 46.5 15.1875 47.5312 14.0625 48.4375C12.9375 49.3125 11.7031 50.0156 10.3594 50.5469C9.04688 51.0781 7.59375 51.3438 6 51.3438C5.65625 51.3438 5.1875 51.3281 4.59375 51.2969C4.03125 51.2656 3.46875 51.1719 2.90625 51.0156C2.375 50.8594 1.90625 50.6094 1.5 50.2656C1.125 49.9219 0.9375 49.4375 0.9375 48.8125C0.9375 48.5625 1.07812 48.25 1.35938 47.875C1.67188 47.4688 1.9375 47.1875 2.15625 47.0312C2.59375 47.75 2.95312 48.2344 3.23438 48.4844C3.54688 48.7031 3.98438 48.8125 4.54688 48.8125C5.48438 48.8125 6.46875 48.6719 7.5 48.3906C8.5625 48.0781 9.57812 47.6719 10.5469 47.1719C11.5469 46.6719 12.4844 46.0938 13.3594 45.4375C14.2344 44.7812 14.9688 44.0938 15.5625 43.375C16.0312 42.75 16.5938 41.9531 17.25 40.9844C17.9375 39.9844 18.6562 38.9062 19.4062 37.75C20.1875 36.5625 20.9844 35.3594 21.7969 34.1406C22.6094 32.9219 23.3906 31.7656 24.1406 30.6719C24.9219 29.5469 25.6406 28.5469 26.2969 27.6719C26.9531 26.7969 27.5156 26.1406 27.9844 25.7031C28.4219 25.7031 28.75 25.7812 28.9688 25.9375C29.1875 26.0625 29.3438 26.25 29.4375 26.5C29.5312 26.75 29.5781 27.0469 29.5781 27.3906C29.5781 27.7344 29.5781 28.0938 29.5781 28.4688C29.5781 29.7812 29.375 31.0625 28.9688 32.3125C28.5938 33.5625 28.1719 34.7812 27.7031 35.9688C27.2344 37.125 26.7969 38.2656 26.3906 39.3906C26.0156 40.5156 25.8281 41.625 25.8281 42.7188C25.8281 42.7812 25.8281 42.8906 25.8281 43.0469C25.8594 43.2031 25.875 43.3125 25.875 43.375C28.8125 40.125 31.3438 37.3125 33.4688 34.9375C35.5938 32.5625 37.3906 30.5469 38.8594 28.8906C40.3594 27.2031 41.5781 25.8438 42.5156 24.8125C43.4531 23.75 44.2031 22.9375 44.7656 22.375C45.3281 21.7812 45.75 21.375 46.0312 21.1562C46.3438 20.9375 46.5938 20.8281 46.7812 20.8281C47.0938 20.8281 47.3281 20.9219 47.4844 21.1094C47.6406 21.2969 47.7344 21.5156 47.7656 21.7656C47.8281 22.0156 47.8438 22.2812 47.8125 22.5625C47.8125 22.8438 47.8125 23.0781 47.8125 23.2656C47.8125 24.5781 47.5625 25.9219 47.0625 27.2969C46.5938 28.6406 45.9844 30.0312 45.2344 31.4688C44.5156 32.875 43.7188 34.3125 42.8438 35.7812C42 37.2188 41.2031 38.7031 40.4531 40.2344C39.7344 41.7656 39.125 43.3281 38.625 44.9219C38.1562 46.4844 37.9219 48.0938 37.9219 49.75C37.9219 50.5938 37.9375 51.2188 37.9688 51.625C38 52 38.0938 52.3125 38.25 52.5625C38.4062 52.8438 38.6562 53.125 39 53.4062C39.3438 53.7188 39.8281 54.2031 40.4531 54.8594C39.7344 55.2656 39.0312 55.4219 38.3438 55.3281C37.6875 55.2656 37.1094 55 36.6094 54.5312C36.1406 54.0625 35.7969 53.4219 35.5781 52.6094C35.3594 51.7969 35.3438 50.875 35.5312 49.8438Z" fill="#FFFAFA"/>
</svg>
